<?xml version="1.0" encoding="utf-8"?>
<!-- Generator: Adobe Illustrator 25.0.1, SVG Export Plug-In . SVG Version: 6.00 Build 0)  -->
<svg version="1.1" xmlns="http://www.w3.org/2000/svg" xmlns:xlink="http://www.w3.org/1999/xlink" x="0px" y="0px"
	 viewBox="0 0 650 650" style="enable-background:new 0 0 650 650;" xml:space="preserve">
<style type="text/css">
	.st0{display:none;fill:#FFFFFF;}
	.st1{fill:#F1CE33;}
	.st2{fill:#ECB630;}
	.st3{fill:#EDEC47;}
	.st4{fill:#DB8030;}
	.st5{clip-path:url(#SVGID_2_);}
	.st6{clip-path:url(#SVGID_4_);}
	.st7{fill:#FFFFFF;}
	.st8{clip-path:url(#SVGID_8_);}
	.st9{clip-path:url(#SVGID_10_);}
	.st10{fill:#EBC22D;}
	.st11{fill:#101217;}
</style>
<g id="NEW_-_2022.03.09">
</g>
<g id="Layer_2">
	<path class="st0" d="M507.79,650H142.21C63.67,650,0,586.33,0,507.79V142.21C0,63.67,63.67,0,142.21,0h365.57
		C586.33,0,650,63.67,650,142.21v365.57C650,586.33,586.33,650,507.79,650z"/>
	<g>
		<path class="st7" d="M519.59,319.47c0,85.68-80.72,145.86-176.37,145.86s-172.96-23.97-172.96-109.65s105.9-196.61,201.55-196.61
			S519.59,233.79,519.59,319.47z"/>
		<g>
			<g>
				<path class="st10" d="M318.36,178.09c0.03,5.57-0.33,11.14-1.11,16.67c-0.07,0.47-0.5,0.79-0.96,0.73
					c-0.47-0.07-0.79-0.5-0.73-0.96l0-0.01c0.8-5.43,1.21-10.93,1.22-16.42c0-0.44,0.35-0.79,0.79-0.79
					C318.01,177.3,318.36,177.66,318.36,178.09z"/>
				<path class="st10" d="M309.76,223.02c-1.05,2.59-2.19,5.15-3.39,7.68c-1.21,2.53-2.51,5.01-3.91,7.45
					c-0.36,0.63-1.16,0.85-1.79,0.49c-0.63-0.36-0.85-1.16-0.49-1.79c0.01-0.01,0.01-0.02,0.02-0.03l0.02-0.03
					c2.87-4.68,5.39-9.57,7.54-14.61c0.24-0.55,0.87-0.81,1.42-0.57c0.54,0.23,0.8,0.86,0.58,1.4L309.76,223.02z"/>
				<path class="st10" d="M284.8,261.84c-1.96,2.04-4,4.02-6.07,5.96c-2.09,1.93-4.25,3.79-6.48,5.57c-0.98,0.78-2.4,0.62-3.18-0.36
					c-0.78-0.98-0.62-2.4,0.36-3.18c0.03-0.02,0.06-0.04,0.09-0.07l0.09-0.07c4.45-3.2,8.68-6.72,12.62-10.52
					c0.73-0.71,1.9-0.69,2.61,0.05c0.69,0.72,0.69,1.85,0,2.56L284.8,261.84z"/>
				<path class="st10" d="M246.54,288.99c-2.64,1.18-5.32,2.3-8.04,3.3c-2.73,1.01-5.49,1.91-8.3,2.72
					c-1.89,0.54-3.86-0.55-4.4-2.43s0.55-3.86,2.43-4.4c0.07-0.02,0.13-0.04,0.2-0.05l0.2-0.05c5.34-1.19,10.6-2.78,15.72-4.75
					c1.56-0.6,3.32,0.18,3.92,1.74c0.58,1.51-0.13,3.2-1.59,3.85L246.54,288.99z"/>
				<path class="st10" d="M199.81,299.65c-5.91,0.15-11.86-0.12-17.79-0.84c-2.74-0.33-4.69-2.82-4.36-5.56
					c0.33-2.74,2.82-4.69,5.56-4.36c0.09,0.01,0.18,0.02,0.27,0.04l0.28,0.05c5.38,0.97,10.84,1.55,16.31,1.73
					c2.46,0.08,4.39,2.15,4.31,4.61c-0.08,2.37-1.99,4.25-4.33,4.31L199.81,299.65z"/>
				<path class="st10" d="M151.56,290.97c-5.6-2.28-11.05-4.98-16.29-8.07c-3-1.77-4-5.63-2.23-8.63c1.77-3,5.63-4,8.63-2.23
					c0.08,0.05,0.16,0.1,0.24,0.15l0.25,0.17c4.57,3,9.36,5.67,14.31,7.98c2.93,1.36,4.2,4.85,2.84,7.78
					c-1.32,2.84-4.63,4.12-7.5,2.96L151.56,290.97z"/>
				<path class="st10" d="M110.08,263.14c-2.14-2.2-4.21-4.48-6.2-6.84c-1.98-2.36-3.84-4.82-5.64-7.33
					c-2.34-3.28-1.58-7.84,1.7-10.18c3.28-2.34,7.84-1.58,10.18,1.7c0.03,0.05,0.07,0.1,0.1,0.15l0.12,0.18
					c3.04,4.54,6.41,8.85,10.08,12.91c2.59,2.86,2.37,7.28-0.49,9.88c-2.8,2.53-7.08,2.38-9.69-0.29L110.08,263.14z"/>
				<path class="st10" d="M83.12,220.31c-1.07-2.91-2.04-5.87-2.89-8.86c-0.87-2.99-1.57-6.02-2.18-9.07
					c-0.84-4.22,1.91-8.33,6.13-9.17c4.22-0.84,8.33,1.91,9.17,6.13l0.01,0.06l0,0.03c1.02,5.36,2.43,10.65,4.22,15.8
					c1.39,4-0.72,8.37-4.72,9.76c-3.95,1.37-8.27-0.68-9.71-4.59L83.12,220.31z"/>
				<path class="st10" d="M75.93,169.93c0.42-6.2,1.29-12.37,2.61-18.45l0-0.02c0.91-4.2,5.06-6.87,9.26-5.95
					c4.18,0.91,6.84,5.02,5.97,9.2c-1.12,5.34-1.84,10.76-2.17,16.21l0,0.02c-0.26,4.33-3.98,7.62-8.31,7.36
					c-4.33-0.26-7.62-3.98-7.36-8.31L75.93,169.93z"/>
				<path class="st10" d="M89.77,120.99c2.92-5.46,6.23-10.7,9.89-15.66l0.1-0.13c2.37-3.21,6.9-3.89,10.12-1.52
					c3.16,2.33,3.86,6.75,1.63,9.96c-3.12,4.48-5.92,9.19-8.36,14.07l-0.08,0.15c-1.85,3.7-6.35,5.2-10.05,3.36
					c-3.7-1.85-5.2-6.35-3.36-10.05C89.71,121.13,89.75,121.04,89.77,120.99z"/>
				<path class="st10" d="M122.1,82.32c4.83-3.75,9.92-7.14,15.21-10.13l0.24-0.13c2.98-1.69,6.77-0.64,8.45,2.35
					c1.63,2.89,0.68,6.54-2.09,8.3c-4.62,2.92-9.03,6.17-13.19,9.73l-0.22,0.19c-2.79,2.39-6.99,2.06-9.37-0.72
					c-2.39-2.79-2.06-6.99,0.72-9.37C121.93,82.46,122.02,82.38,122.1,82.32z"/>
				<path class="st10" d="M166.63,60.32c5.82-1.48,11.73-2.52,17.66-3.13l0.26-0.03c2.68-0.27,5.08,1.68,5.35,4.36
					c0.26,2.58-1.55,4.9-4.08,5.32c-5.4,0.87-10.74,2.14-15.95,3.79l-0.28,0.09c-2.85,0.9-5.89-0.67-6.79-3.52
					c-0.9-2.85,0.67-5.89,3.52-6.79C166.42,60.37,166.53,60.34,166.63,60.32z"/>
				<path class="st10" d="M215.22,57.96c5.8,0.89,11.52,2.19,17.09,3.9l0.18,0.06c1.82,0.56,2.85,2.49,2.29,4.32
					c-0.54,1.75-2.36,2.77-4.12,2.34c-5.32-1.29-10.74-2.19-16.19-2.7l-0.22-0.02c-2.19-0.2-3.8-2.14-3.6-4.33
					c0.2-2.19,2.14-3.8,4.33-3.6C215.06,57.93,215.14,57.95,215.22,57.96z"/>
				<path class="st10" d="M259.94,74.24c4.91,2.98,9.58,6.31,13.97,9.95l0.08,0.07c0.93,0.77,1.06,2.15,0.29,3.08
					c-0.75,0.9-2.06,1.05-2.99,0.36c-4.39-3.28-9.03-6.23-13.85-8.83l-0.11-0.06c-1.28-0.69-1.75-2.28-1.06-3.56
					c0.69-1.28,2.28-1.75,3.56-1.06C259.86,74.2,259.9,74.22,259.94,74.24z"/>
				<path class="st10" d="M294.35,105.71c1.67,2.27,3.29,4.57,4.82,6.94c1.53,2.36,2.97,4.78,4.32,7.24l0.02,0.03
					c0.34,0.62,0.11,1.39-0.51,1.73c-0.61,0.33-1.36,0.12-1.71-0.47c-2.78-4.73-5.9-9.26-9.34-13.54l-0.04-0.05
					c-0.53-0.66-0.43-1.63,0.24-2.17c0.66-0.53,1.63-0.43,2.17,0.24C294.32,105.67,294.34,105.69,294.35,105.71z"/>
				<path class="st10" d="M314.37,147.09c0.7,2.7,1.3,5.43,1.85,8.16c0.54,2.74,0.97,5.49,1.31,8.26c0.06,0.46-0.27,0.89-0.73,0.94
					c-0.46,0.06-0.88-0.27-0.94-0.73c-0.7-5.45-1.8-10.84-3.29-16.12l0-0.01c-0.14-0.5,0.15-1.02,0.65-1.16
					c0.5-0.14,1.02,0.15,1.16,0.65C314.37,147.08,314.37,147.08,314.37,147.09z"/>
			</g>
			<circle class="st10" cx="203.69" cy="178.09" r="82.66"/>
		</g>
		<g>
			<g>
				<path class="st11" d="M363.3,522.79c4.18-16.55,8.03-29.7,10.72-43.08c2.38-11.85,10.21-15.31,20.75-17.85
					c23.68-5.71,47.46-11.48,70.46-19.36c21.08-7.23,39.26-20.05,51.4-39.41c14.47-23.08,12.84-48.05,6.17-73.02
					c-2.91-10.9-7.11-21.48-11-32.11c-4.43-12.11-1.27-22.13,8.59-26.08c10.01-4.02,19.9,0.26,24.87,11.68
					c14.53,33.37,23.66,67.98,16.19,104.45c-9.58,46.79-42.6,72.92-84.49,89.22c-19.37,7.54-39.74,12.71-59.94,17.79
					c-7.5,1.89-10.54,5.4-12.11,12.31c-4.18,18.31-8.89,36.5-13.22,54.77c-2.2,9.27-4.78,18.21-15.79,20.38
					c-10.64,2.09-16.95-3.88-22.83-11.93c-13.16-18.03-27.41-35.27-40.36-53.45c-6.45-9.06-14.53-11.88-24.97-13.27
					c-37.1-4.9-72.84-14.58-105.42-33.82c-59.79-35.33-74.37-94.09-57.65-155.22c12.65-46.23,42.72-80.84,73.39-115.35
					c32.55-36.63,72.43-62.67,118.47-78.15c34.96-11.75,70.52-12.51,103.6,8.01c26.16,16.23,39.99,41.44,49.38,69.59
					c2.91,8.72,4.97,17.74,6.97,26.73c2.59,11.66-3.07,21.5-13.42,24.15c-9.49,2.43-18.67-3.78-22.05-15.06
					c-3.14-10.5-5.23-21.43-9.38-31.51c-18.73-45.5-55.13-61.8-102.48-48.1c-58.92,17.04-101.26,55.99-135.81,103.83
					c-14.25,19.73-25.14,42.95-32.81,66.16c-16.67,50.4,1.32,91.15,48.44,117.01c29.7,16.3,62.13,23.82,95.44,27.23
					c13.8,1.41,23.99,6.13,31.77,17.86C343.85,498.75,352.96,509.35,363.3,522.79z"/>
			</g>
			<g>
				<path class="st11" d="M454.05,328.35c4.79,9.85-11.42,19.83-25.5,19.83s-25.5-8.88-25.5-19.83s18.21-23.58,28.65-26.13
					C445.38,298.88,448.7,317.33,454.05,328.35z"/>
				<path class="st7" d="M434.84,301.82c11.1,0,14.3,16.4,19.22,26.53c4.79,9.85-11.42,19.83-25.5,19.83
					c-14.08,0-25.5-8.88-25.5-19.83c0-10.95,18.21-23.58,28.65-26.13C432.81,301.95,433.86,301.82,434.84,301.82 M434.84,291.87
					C434.84,291.87,434.84,291.87,434.84,291.87c-1.79,0-3.64,0.23-5.5,0.68c-12.65,3.09-36.24,18.11-36.24,35.8
					c0,8.32,4.12,16.29,11.31,21.88c6.55,5.1,15.13,7.91,24.14,7.91c13.48,0,27.46-6.71,33.25-15.95
					c3.59-5.74,4.04-12.37,1.21-18.19c-0.94-1.94-1.88-4.32-2.87-6.84c-1.91-4.87-4.08-10.39-7.22-14.93
					C447.01,293.66,439.82,291.87,434.84,291.87L434.84,291.87z"/>
			</g>
			<g>
				<path class="st11" d="M365.58,328.35c4.79,9.85-11.42,19.83-25.5,19.83s-25.5-8.88-25.5-19.83s18.21-23.58,28.65-26.13
					C356.91,298.88,360.23,317.33,365.58,328.35z"/>
				<path class="st7" d="M346.36,301.82c11.1,0,14.3,16.4,19.22,26.53c4.79,9.85-11.42,19.83-25.5,19.83
					c-14.08,0-25.5-8.88-25.5-19.83c0-10.95,18.21-23.58,28.65-26.13C344.34,301.95,345.38,301.82,346.36,301.82 M346.36,291.87
					C346.36,291.87,346.36,291.87,346.36,291.87c-1.79,0-3.64,0.23-5.5,0.68c-12.65,3.09-36.24,18.11-36.24,35.8
					c0,8.32,4.12,16.29,11.31,21.88c6.55,5.1,15.13,7.91,24.14,7.91c13.48,0,27.46-6.71,33.25-15.95
					c3.59-5.74,4.04-12.37,1.21-18.19c-0.94-1.94-1.88-4.32-2.87-6.84c-1.91-4.87-4.08-10.39-7.22-14.93
					C358.54,293.66,351.35,291.87,346.36,291.87L346.36,291.87z"/>
			</g>
			<g>
				<path class="st11" d="M276.67,328.35c4.79,9.85-11.42,19.83-25.5,19.83s-25.5-8.88-25.5-19.83s18.21-23.58,28.65-26.13
					C268,298.88,271.32,317.33,276.67,328.35z"/>
				<path class="st7" d="M257.45,301.82c11.1,0,14.3,16.4,19.22,26.53c4.79,9.85-11.42,19.83-25.5,19.83s-25.5-8.88-25.5-19.83
					c0-10.95,18.21-23.58,28.65-26.13C255.43,301.95,256.47,301.82,257.45,301.82 M257.45,291.87
					C257.45,291.87,257.45,291.87,257.45,291.87c-1.79,0-3.64,0.23-5.5,0.68c-12.65,3.09-36.24,18.11-36.24,35.8
					c0,8.32,4.12,16.29,11.31,21.88c6.55,5.1,15.13,7.91,24.14,7.91c13.48,0,27.46-6.71,33.25-15.95
					c3.59-5.74,4.04-12.37,1.21-18.19c-0.94-1.94-1.88-4.32-2.87-6.84c-1.91-4.87-4.08-10.39-7.22-14.93
					C269.63,293.66,262.44,291.87,257.45,291.87L257.45,291.87z"/>
			</g>
		</g>
	</g>
</g>
</svg>
