<?xml version="1.0" encoding="utf-8"?>
<!-- Generator: Adobe Illustrator 25.0.1, SVG Export Plug-In . SVG Version: 6.00 Build 0)  -->
<svg version="1.1" id="NEW_-_2022.03.09" xmlns="http://www.w3.org/2000/svg" xmlns:xlink="http://www.w3.org/1999/xlink" x="0px"
	 y="0px" viewBox="0 0 650 650" style="enable-background:new 0 0 650 650;" xml:space="preserve">
<style type="text/css">
	.st0{display:none;fill:#FFFFFF;}
	.st1{fill:#F1CE33;}
	.st2{fill:#ECB630;}
	.st3{fill:#EDEC47;}
	.st4{fill:#DB8030;}
	.st5{clip-path:url(#SVGID_2_);}
	.st6{fill:#FFFFFF;}
	.st7{clip-path:url(#SVGID_3_);}
</style>
<g id="Colour_2_">
	<path class="st0" d="M474.88,650H175.12C78.4,650,0,571.6,0,474.88V175.12C0,78.4,78.4,0,175.12,0h299.76
		C571.6,0,650,78.4,650,175.12v299.76C650,571.6,571.6,650,474.88,650z"/>
	<g>
		<path class="st1" d="M326.69,172.93c72.38,3.58,134.49,51.89,152.58,121.29c3.18,12.2,4.03,25.17,4.65,37.85
			c0.65,13.38-5.12,19.3-16.69,19.53c-10.53,0.21-16.15-5.62-16.95-18.74c-1.34-21.99-6.42-42.68-17.76-61.9
			c-31.23-52.97-98.97-75.88-155.77-52.28c-84.71,35.2-105.35,145.36-38.64,208.34c21.25,20.06,46.89,31.71,76.48,33.52
			c3.5,0.21,7.04,0.24,10.51,0.71c10.43,1.42,16.59,8.38,16.09,17.92c-0.5,9.53-7.61,17.08-17.88,15.83
			c-18.56-2.26-38.01-3.4-55.16-10c-59.2-22.78-94.77-67.16-102.85-129.7c-10.21-79.13,37.18-149.32,109.99-172.42
			C291.81,177.62,309.53,176.14,326.69,172.93z"/>
		<path class="st1" d="M473.51,63.32c0.18,21.01-16.09,37.54-37.23,37.79c-19.28,0.24-36.99-17.07-37.14-36.28
			c-0.16-22.12,15.53-38.67,37-39.04C456.93,25.44,473.32,41.9,473.51,63.32z"/>
		<path class="st1" d="M171.32,67.04c-0.02-21.09,16.34-36.81,38.23-36.75c20.16,0.06,36.29,16.25,36.43,36.58
			c0.15,20.71-16.29,38.11-36.19,38.32C188.5,105.41,171.35,88.4,171.32,67.04z"/>
		<path class="st2" d="M93.92,460.38c-0.24,21.12-16.95,37.41-38.07,37.11c-19.94-0.28-36.66-17.82-36.29-38.07
			c0.37-19.91,17.18-37.21,36.3-37.35C77.1,421.92,94.16,439.09,93.92,460.38z"/>
		<path class="st3" d="M599.34,186c21.19,0.44,37.29,16.99,37.1,38.13c-0.18,20.38-17.64,36.49-39.01,35.98
			c-19.51-0.46-36.4-18.12-35.92-37.53C562.03,202.35,579.36,185.58,599.34,186z"/>
		<path class="st4" d="M51.28,194.92c21.17,0.16,37.38,16.88,37.01,38.18c-0.35,20.32-17.69,36.96-37.94,36.43
			c-20.26-0.54-37.04-17.84-36.79-37.95C13.82,211.02,30.55,194.76,51.28,194.92z"/>
		<path class="st2" d="M194.94,590.38c-0.2-19.71,14.5-34.74,34.03-34.8c18.96-0.06,34.02,14.67,34.39,33.63
			c0.37,19.27-14.64,34.66-34.16,35C210.51,624.53,195.14,609.36,194.94,590.38z"/>
		<path class="st1" d="M350.27,122.01c0.07,14.73-12.55,27.3-27.37,27.27c-15.05-0.02-27.45-12.82-27.6-28.49
			c-0.13-13.64,12.92-26.37,27.26-26.58C338.18,93.99,350.2,106.05,350.27,122.01z"/>
		<path class="st2" d="M206.22,497.88c0.13,14.53-12.74,27.07-27.65,26.95c-14.92-0.13-27.31-12.55-27.33-27.41
			c-0.02-15.2,11.69-26.89,27.21-27.15C194.14,469.99,206.08,481.85,206.22,497.88z"/>
		<path class="st1" d="M142.91,189.62c-0.08-15.76,11.29-28,26.32-28.32c14.94-0.33,27.78,12.09,27.87,26.95
			c0.1,15.99-11.58,28-27.52,28.29C155.21,216.8,142.99,204.47,142.91,189.62z"/>
		<path class="st4" d="M137.29,344.37c0.21,15.33-11.73,27.77-26.64,27.75c-15.53-0.02-27.44-11.43-27.82-26.64
			c-0.39-15.52,11.8-27.73,27.63-27.68C125.21,317.85,137.09,329.62,137.29,344.37z"/>
		<path class="st3" d="M451.6,183.51c-0.14-15.75,11.35-27.97,26.38-28.06c15.16-0.1,27.35,12.04,27.36,27.23
			c0,15.14-12.03,27.44-27.07,27.66C463.9,210.54,451.73,198.31,451.6,183.51z"/>
		<path class="st3" d="M450.72,337.22c-0.09-9.74,7.02-17.31,16.33-17.37c9.38-0.06,16.93,7.45,16.93,16.85
			c0,9.37-7.45,16.98-16.75,17.12C458.33,353.95,450.8,346.38,450.72,337.22z"/>
		<path class="st2" d="M309.4,478.53c-0.09-9.74,7.02-17.31,16.33-17.37c9.38-0.06,16.93,7.45,16.93,16.85
			c0,9.37-7.45,16.98-16.75,17.12C317.01,495.26,309.48,487.69,309.4,478.53z"/>
	</g>
</g>
</svg>
